<?xml version="1.0" encoding="UTF-8" standalone="no"?>
<!-- Created with Inkscape (http://www.inkscape.org/) -->

<svg
   width="210mm"
   height="297mm"
   viewBox="0 0 210 297"
   version="1.1"
   id="svg5"
   inkscape:version="1.1.2 (b8e25be833, 2022-02-05)"
   sodipodi:docname="logocooperativa.svg"
   inkscape:export-filename="G:\cooperativa\img\logo.png"
   inkscape:export-xdpi="96"
   inkscape:export-ydpi="96"
   xmlns:inkscape="http://www.inkscape.org/namespaces/inkscape"
   xmlns:sodipodi="http://sodipodi.sourceforge.net/DTD/sodipodi-0.dtd"
   xmlns="http://www.w3.org/2000/svg"
   xmlns:svg="http://www.w3.org/2000/svg">
  <sodipodi:namedview
     id="namedview7"
     pagecolor="#ffffff"
     bordercolor="#666666"
     borderopacity="1.0"
     inkscape:pageshadow="2"
     inkscape:pageopacity="0.0"
     inkscape:pagecheckerboard="0"
     inkscape:document-units="mm"
     showgrid="false"
     inkscape:zoom="0.834386"
     inkscape:cx="227.71235"
     inkscape:cy="534.52479"
     inkscape:window-width="1920"
     inkscape:window-height="1017"
     inkscape:window-x="-8"
     inkscape:window-y="-8"
     inkscape:window-maximized="1"
     inkscape:current-layer="layer1" />
  <defs
     id="defs2" />
  <g
     inkscape:label="Camada 1"
     inkscape:groupmode="layer"
     id="layer1">
    <path
       style="opacity:0.97;fill:#963109;fill-opacity:1;stroke:#963109;stroke-width:0.142499px;stroke-linecap:butt;stroke-linejoin:miter;stroke-opacity:1"
       d="m 87.650625,61.547224 -2.43523,6.727202 -2.224178,8.480004 -2.015828,10.399519 -0.356626,11.100862 0.291237,5.774949 1.10334,6.04458 1.9841,5.13926 2.117716,4.0842 3.252036,4.31263 4.908449,5.17024 7.546939,6.98859 11.26917,7.56221 13.84727,9.19867 12.60097,7.5649 10.56782,5.74281 4.43381,1.80958 0.0249,-5.6948 -0.50719,-10.40307 -0.84152,-10.0208 -0.93645,-8.38809 -1.16244,-6.97321 -1.84995,-8.38264 -1.84323,-6.59847 -2.37734,-5.8976 -2.14301,-3.8287 -2.77319,-3.739879 -2.62041,-3.11396 -3.39693,-3.314375 -3.21891,-2.9809 -4.0972,-3.2813 -3.72358,-2.750686 -4.38938,-3.086088 -5.62172,-3.683143 -7.14449,-4.380505 -6.106917,-3.351631 -4.552126,-2.478958 z"
       id="path8778"
       sodipodi:nodetypes="cccccccccccccccccccccccccccccccccccccc"
       inkscape:export-filename="G:\cooperativa\img\log cooperativa.png"
       inkscape:export-xdpi="96"
       inkscape:export-ydpi="96" />
    <path
       style="opacity:0.87;fill:#f2a200;fill-opacity:1;stroke:#f2a200;stroke-width:0.142499px;stroke-linecap:butt;stroke-linejoin:miter;stroke-opacity:1"
       d="m 64.831401,68.418357 -1.643777,5.587221 -1.419524,6.311813 -0.763517,6.82176 -0.256315,7.83597 0.48045,7.934059 2.264426,9.49762 1.775471,5.04509 2.784316,5.26934 3.425506,5.9062 5.231714,6.33619 5.507149,5.24906 4.847707,3.77313 6.752831,4.43585 7.134672,3.75403 8.72555,4.26396 8.62591,3.18181 11.1953,3.53064 9.02668,2.33951 9.73344,1.83488 6.28223,0.32094 c 0.002,-0.70537 -0.3439,-5.32697 -0.3439,-5.32697 l -0.9063,-4.70031 -1.11459,-3.89327 -3.74569,-12.29072 -1.95388,-5.54715 -2.84576,-6.93418 -4.11667,-7.92895 -3.13747,-5.28235 -3.89784,-5.15958 -4.39257,-4.66571 -4.62543,-3.90388 -6.06601,-4.600659 -4.91594,-3.33489 -6.01407,-3.780518 -5.67259,-3.49366 -5.930001,-3.260483 -5.789084,-3.125826 -5.129274,-2.777275 -4.859576,-2.531729 -7.93338,-3.831814 z"
       id="path11830"
       sodipodi:nodetypes="cccccccccccccccccccccccccccccccccccccccccc"
       inkscape:export-filename="G:\cooperativa\img\log cooperativa.png"
       inkscape:export-xdpi="96"
       inkscape:export-ydpi="96" />
    <path
       style="opacity:0.8;fill:#035101;fill-opacity:1;stroke:#035101;stroke-width:0.142499px;stroke-linecap:butt;stroke-linejoin:miter;stroke-opacity:1"
       d="m 47.755682,91.442703 1.462659,10.911177 1.710631,9.62499 1.797811,7.3976 2.047766,6.89238 3.154977,8.21982 2.379321,4.94012 2.655014,4.62685 3.135379,4.43017 2.745803,3.03845 3.08012,2.85479 3.955679,2.8255 4.908081,2.75836 6.083343,2.54444 8.154272,2.19629 9.124092,1.92843 6.23975,0.82869 6.63728,0.66021 9.38587,0.48213 17.99682,-0.1007 7.56332,-0.4382 2.56795,-0.41677 -0.18624,-3.43511 -0.64354,-3.59671 -1.31251,-4.38298 -1.47194,-3.98699 c -0.56655,-1.341 -2.0689,-4.71986 -2.0689,-4.71986 l -2.69067,-4.73157 -2.17008,-3.37136 -3.05217,-4.06144 -4.72437,-5.43384 -4.04779,-3.92588 -4.44329,-3.90878 -6.42886,-4.71543 -4.40788,-3.01431 -4.81567,-2.66941 -4.4674,-2.2628 -3.65342,-1.52962 -6.449821,-2.59533 -5.194783,-1.88221 -4.903999,-1.83298 L 69.951484,96.525811 56.226845,93.22701 Z"
       id="path1083"
       sodipodi:nodetypes="cccccccccccccccccccccccccccccccccccccccccccc"
       inkscape:export-filename="G:\cooperativa\img\log cooperativa.png"
       inkscape:export-xdpi="96"
       inkscape:export-ydpi="96" />
  </g>
</svg>
